<?xml version="1.0" encoding="UTF-8"?>
<svg version="1.1" xmlns="http://www.w3.org/2000/svg" width="500" height="500">
<path d="M0 0 C21.12 0 42.24 0 64 0 C64.04898438 10.22355469 64.09796875 20.44710937 64.1484375 30.98046875 C64.18386115 37.49284656 64.21976533 44.00521598 64.2578125 50.51757812 C64.31799256 60.83339445 64.3763212 71.14919522 64.421875 81.46508789 C64.45507596 88.9815622 64.49505612 96.49796656 64.54279006 104.01436311 C64.56777959 107.98499154 64.58963776 111.95557525 64.60334396 115.92625999 C64.63602955 136.51534182 64.63602955 136.51534182 65.79931641 157.0637207 C65.8625881 157.86294795 65.92585979 158.6621752 65.99104881 159.48562145 C67.17793355 171.01327004 73.40631603 181.02342852 81.04296875 189.49609375 C83.41890938 191.32191639 85.01559694 191.8252802 88 192 C97.20386525 186.09563362 104.09459639 173.96853667 106.61010742 163.44848633 C108.56493087 152.64986911 108.4168768 141.68892539 108.5625 130.75 C108.60647484 127.78037652 108.6530189 124.81085872 108.70530701 121.84136963 C108.73722104 120.00628787 108.76412452 118.17111079 108.78553772 116.33587646 C108.88807096 110.11192904 108.88807096 110.11192904 110 109 C111.92761817 108.90079137 113.85889354 108.87200635 115.7890625 108.87060547 C117.0270459 108.86745331 118.2650293 108.86430115 119.54052734 108.86105347 C120.90201859 108.86284325 122.26350951 108.8648942 123.625 108.8671875 C125.01123064 108.86651441 126.39746117 108.86554434 127.78369141 108.86428833 C130.69239422 108.8628116 133.60106637 108.8649651 136.50976562 108.86962891 C140.24596598 108.87532619 143.98209452 108.87204706 147.71829224 108.86605644 C150.58179266 108.86245015 153.44527593 108.86358973 156.30877686 108.86618423 C157.68674732 108.86685332 159.06471932 108.86602574 160.44268799 108.86370468 C162.36543754 108.86117708 164.28819252 108.86570976 166.2109375 108.87060547 C167.85521729 108.87179886 167.85521729 108.87179886 169.53271484 108.87301636 C172 109 172 109 173 110 C173.13607324 112.34635439 173.21115123 114.66709558 173.24609375 117.015625 C173.27704825 118.49960101 173.30839538 119.98356887 173.34008789 121.4675293 C173.35540558 122.24865082 173.37072327 123.02977234 173.38650513 123.83456421 C173.53548291 130.89108266 173.76897024 137.9457679 174 145 C174.03641602 146.14065918 174.07283203 147.28131836 174.11035156 148.45654297 C174.74524849 164.72110849 179.00440367 177.24909628 190.04296875 189.49609375 C192.53322272 191.40976197 193.83455825 192.04220589 197 192 C201.7815857 188.81433812 204.69112859 185.02291418 207.6875 180.1875 C208.06455078 179.60935547 208.44160156 179.03121094 208.83007812 178.43554688 C213.38144352 171.24709019 215.49147585 164.19979919 216.19921875 155.79296875 C216.28024338 154.86542282 216.36126801 153.93787689 216.44474792 152.98222351 C217.13031377 143.79666622 217.09735122 134.62959478 217.01953125 125.42578125 C217.01319546 124.65303738 217.00685966 123.8802935 217.00033188 123.08413315 C216.93685462 115.83982438 216.85101423 108.59591775 216.73266602 101.35229492 C216.66837783 97.34585488 216.62825379 93.33977684 216.60349083 89.33290672 C216.58926172 87.81970789 216.56569332 86.30656614 216.53248024 84.79366493 C216.48693981 82.6983115 216.47202291 80.60481727 216.46411133 78.5090332 C216.44697586 77.32074417 216.42984039 76.13245514 216.41218567 74.90815735 C217 72 217 72 219.34062195 70.22135925 C220.21821671 69.8183107 221.09581146 69.41526215 222 69 C226.39261328 66.08085826 230.70803969 63.06416072 235 60 C235.66515625 59.52820313 236.3303125 59.05640625 237.015625 58.5703125 C250.96600491 47.66734568 259.12225185 30.54192849 264 14 C264.99 14 265.98 14 267 14 C278.2146709 35.20443842 282.17166893 55.09423249 282.1328125 79.01171875 C282.13348944 80.35097776 282.13446267 81.69023664 282.13571167 83.02949524 C282.13717697 85.82900163 282.13507643 88.6284759 282.13037109 91.42797852 C282.1247456 94.93828509 282.12801083 98.44851466 282.13381004 101.95881844 C282.20188347 150.50633076 280.56655831 182.84169873 246.41015625 219.40625 C244.4042763 221.56492794 242.47087086 223.75593981 240.5625 226 C229.93669046 238.16541615 214.70738086 255.52784431 197.9375 258 C189.2718251 258.4419896 183.42442946 254.38134866 177 249 C176.23945313 248.37351562 175.47890625 247.74703125 174.6953125 247.1015625 C164.36090367 238.21991401 156.04859958 227.49432275 147.75 216.75 C147.17660889 216.01072266 146.60321777 215.27144531 146.01245117 214.50976562 C145.48756104 213.82076172 144.9626709 213.13175781 144.421875 212.421875 C143.71949707 211.50293457 143.71949707 211.50293457 143.00292969 210.56542969 C142 209 142 209 142 207 C141.34 207 140.68 207 140 207 C139.75378906 207.54527344 139.50757813 208.09054687 139.25390625 208.65234375 C129.99262692 225.99199757 110.70323454 250.08125081 92.078125 257.375 C85.07995326 259.4797133 79.20979684 257.28282956 73 254 C57.5298925 243.97621802 43.91411646 229.93858547 32 216 C31.08424084 214.95883651 30.16749151 213.91854348 29.25 212.87890625 C10.97029552 192.04572411 2.27963666 174.51296737 0.82470703 146.46508789 C0.78518488 145.76271629 0.74566273 145.0603447 0.70494294 144.33668911 C-0.130334 129.42702004 -0.26703886 114.53751355 -0.20278788 99.60514712 C-0.18990411 96.07792475 -0.18908152 92.55069504 -0.18673706 89.02345276 C-0.18062886 82.40527426 -0.16436991 75.78716535 -0.14403808 69.1690169 C-0.11705646 60.18270508 -0.10661985 51.19637293 -0.09503365 42.21003056 C-0.07647547 28.13996869 -0.03656142 14.07005334 0 0 Z " fill="#161515" transform="translate(109,150)"/>
<path d="M0 0 C0.78246094 0.60585937 1.56492187 1.21171875 2.37109375 1.8359375 C16.19264092 13.19020675 24.45642045 30.48133135 27 48 C29.01098663 68.93542925 23.96550502 88.62007743 11.125 105.4375 C-2.44011447 121.13202197 -18.71368898 129.61894816 -39 133 C-43.62 133 -48.24 133 -53 133 C-53 112.21 -53 91.42 -53 70 C-48.05 69.01 -48.05 69.01 -43 68 C-39.34735955 65.3909711 -38.25105066 63.86298664 -37 59.5625 C-37 55.38189691 -37.59584531 53.41234859 -40 50 C-43.23267067 47.7730491 -45.13153245 46.98227617 -49.0625 47.0625 C-52.44314959 48.14143072 -54.42915878 49.57606399 -57 52 C-58.94443324 55.88886649 -58.41077143 60.67939562 -58.5625 64.9609375 C-58.6049585 66.13876801 -58.64741699 67.31659851 -58.69116211 68.53012085 C-59.26947662 86.88797021 -59.06763548 105.26077472 -59 123.625 C-58.97630042 130.17584247 -58.95606887 136.72666321 -58.94406128 143.2775383 C-58.93759121 145.87741048 -58.92511127 148.47720906 -58.91235352 151.07705688 C-58.90872682 152.6472365 -58.90537438 154.21741678 -58.90234375 155.78759766 C-58.89717743 156.50834473 -58.89201111 157.2290918 -58.88668823 157.97167969 C-58.88650705 159.64821197 -58.93767299 161.32462665 -59 163 C-60 164 -60 164 -62.51197815 164.12025452 C-63.62894577 164.11803391 -64.74591339 164.11581329 -65.89672852 164.11352539 C-67.15796036 164.11344986 -68.4191922 164.11337433 -69.71864319 164.11329651 C-71.10539794 164.1081891 -72.49215229 164.10297309 -73.87890625 164.09765625 C-75.28995209 164.09579201 -76.70099857 164.09436814 -78.11204529 164.09336853 C-81.83240535 164.08954379 -85.5527266 164.0797139 -89.27307129 164.06866455 C-93.06680781 164.05844948 -96.86055058 164.05387071 -100.65429688 164.04882812 C-108.10288231 164.03809158 -115.55143572 164.0210157 -123 164 C-123.07043678 149.67338193 -123.1229563 135.34679116 -123.15543652 121.02003479 C-123.17103245 114.36615115 -123.19215884 107.71241588 -123.22631836 101.05859375 C-123.25912941 94.62652449 -123.27689859 88.19456721 -123.28463173 81.76242065 C-123.29013642 79.31947062 -123.30088469 76.87652609 -123.31719017 74.43362427 C-123.49250027 47.05737793 -119.99421474 24.29362894 -100 4 C-72.75182533 -23.29674539 -29.40216663 -23.68138308 0 0 Z " fill="#161515" transform="translate(341,89)"/>
<path d="M0 0 C1.65 0 3.3 0 5 0 C5.33 0.66 5.66 1.32 6 2 C4.68 2 3.36 2 2 2 C2 21.47 2 40.94 2 61 C3.32 61.33 4.64 61.66 6 62 C5.505 62.495 5.505 62.495 5 63 C3.35 63 1.7 63 0 63 C0 42.21 0 21.42 0 0 Z " fill="#0C0B0D" transform="translate(288,159)"/>
<path d="M0 0 C21.12 0 42.24 0 64 0 C63.67 1.98 63.34 3.96 63 6 C62.505 4.02 62.505 4.02 62 2 C41.54 2 21.08 2 0 2 C0 1.34 0 0.68 0 0 Z " fill="#070709" transform="translate(109,150)"/>
<path d="M0 0 C0.66 0.66 1.32 1.32 2 2 C1.34 2 0.68 2 0 2 C0 1.34 0 0.68 0 0 Z M-1 2 C-0.34 2.66 0.32 3.32 1 4 C0.01 4.33 -0.98 4.66 -2 5 C-1.67 4.01 -1.34 3.02 -1 2 Z M-3 5 C-2.34 5.66 -1.68 6.32 -1 7 C-1.99 7.33 -2.98 7.66 -4 8 C-3.67 7.01 -3.34 6.02 -3 5 Z M-5 8 C-4.34 8.66 -3.68 9.32 -3 10 C-4.65 11.32 -6.3 12.64 -8 14 C-8 11 -8 11 -6.5 9.3125 C-5.7575 8.6628125 -5.7575 8.6628125 -5 8 Z " fill="#0F0E0F" transform="translate(209,328)"/>
<path d="M0 0 C0.99 0.33 1.98 0.66 3 1 C1.02 1.99 1.02 1.99 -1 3 C-0.67 2.01 -0.34 1.02 0 0 Z M-2 3 C-1.34 3.66 -0.68 4.32 0 5 C-1.32 5.99 -2.64 6.98 -4 8 C-4 5 -4 5 -2 3 Z " fill="#100F10" transform="translate(359,194)"/>
<path d="M0 0 C5.75 1.75 5.75 1.75 8 4 C5 5 5 5 2.3125 3.6875 C1.549375 3.130625 0.78625 2.57375 0 2 C0 1.34 0 0.68 0 0 Z " fill="#0F0E0F" transform="translate(181,401)"/>
<path d="M0 0 C1.98 1.65 3.96 3.3 6 5 C5.34 5.66 4.68 6.32 4 7 C2.35 5.02 0.7 3.04 -1 1 C-0.67 0.67 -0.34 0.34 0 0 Z " fill="#0F0F10" transform="translate(159,382)"/>
<path d="M0 0 C0.99 0.33 1.98 0.66 3 1 C4.1875 4.0625 4.1875 4.0625 5 7 C4.01 7.495 4.01 7.495 3 8 C0 2.25 0 2.25 0 0 Z " fill="#100F10" transform="translate(284,320)"/>
</svg>
