<?xml version="1.0" encoding="UTF-8"?>
<svg version="1.1" xmlns="http://www.w3.org/2000/svg" width="465" height="465">
<path d="M0 0 C9.07885634 7.2825125 17.17714675 15.51134063 25.39031506 23.7388134 C27.05340934 25.39755357 28.71691879 27.05587756 30.38080883 28.7138195 C34.87291602 33.19260339 39.35866692 37.67770128 43.84284663 42.1644206 C48.07210199 46.39488604 52.30507479 50.62162824 56.53764049 54.848781 C65.43029845 63.73059538 74.31646715 72.61887997 83.20064757 81.50917293 C91.30974444 89.62344071 99.4270305 97.72945929 107.54820772 105.83163486 C115.91189844 114.17590807 124.2699714 122.5257707 132.62208349 130.88163388 C137.30135614 135.56281206 141.98290246 140.2416719 146.67009068 144.91492653 C151.07716935 149.30939191 155.47687524 153.71111016 159.87114048 158.11838722 C161.47934369 159.72894779 163.09007779 161.336986 164.70359707 162.94222069 C175.8029404 173.98869886 185.99801934 184.37263292 191.66302013 199.28617668 C192.14255138 200.49080559 192.14255138 200.49080559 192.63177013 201.71977043 C197.66188689 216.64710767 195.39469498 233.95145719 189.44817638 248.19633293 C182.16708154 262.86404573 168.71439139 274.52984272 157.2745924 285.94926262 C155.64673729 287.5814744 154.0192975 289.21410048 152.39223766 290.84710503 C148.00646275 295.2461744 143.61440486 299.63891752 139.22070718 304.03007221 C135.54102673 307.70867702 131.8643404 311.3902674 128.1875872 315.07179761 C119.01590088 324.25517515 109.83798006 333.43229371 100.65722447 342.60660353 C92.70865481 350.55000073 84.76833956 358.50159112 76.83185995 366.45706627 C68.6513747 374.65697863 60.4651459 382.85111592 52.2732119 391.03959107 C47.68653516 395.62446089 43.1020758 400.2114919 38.52328205 404.80423546 C34.21825808 409.12188646 29.90596229 413.43214332 25.58812618 417.73698044 C24.01184923 419.31090317 22.43808566 420.88734804 20.86713886 422.46659088 C-1.214962 444.65681237 -1.214962 444.65681237 -16.33697987 450.28617668 C-17.12717518 450.60457512 -17.91737049 450.92297356 -18.73151112 451.25102043 C-33.62096565 456.33922773 -51.12824762 454.2360732 -65.24713612 448.00102043 C-79.25698492 440.92713053 -90.01348323 428.90352695 -100.95660877 417.94120598 C-102.60822851 416.29394047 -104.26026337 414.64709111 -105.91267872 413.0006237 C-110.37386224 408.55276328 -114.8286895 404.09858918 -119.28194571 399.64279342 C-123.48315007 395.44037876 -127.68807179 391.24168847 -131.8925864 387.04258619 C-140.72757073 378.21844566 -149.55606557 369.38783479 -158.38257222 360.55521552 C-166.43602904 352.49658958 -174.49767065 344.4462089 -182.56320925 336.3996767 C-190.8715388 328.11077385 -199.17424045 319.81627163 -207.47098768 311.51577502 C-212.11848514 306.86647009 -216.76814737 302.21938535 -221.42351627 297.57796097 C-225.80187765 293.21222613 -230.17284645 288.83921934 -234.53839397 284.46067238 C-236.13489061 282.86182112 -237.73391046 281.26548445 -239.33572674 279.67196274 C-261.70801226 257.40712887 -261.70801226 257.40712887 -267.33697987 242.28617668 C-267.81457752 241.10088371 -267.81457752 241.10088371 -268.30182362 239.89164543 C-273.39003091 225.0021909 -271.28687639 207.49490892 -265.05182362 193.37602043 C-257.97793371 179.36617162 -245.95433013 168.60967331 -234.99200916 157.66654778 C-233.34474366 156.01492804 -231.69789429 154.36289317 -230.05142689 152.71047783 C-225.60356646 148.2492943 -221.14939236 143.79446705 -216.6935966 139.34121084 C-212.49118195 135.14000647 -208.29249166 130.93508475 -204.09338937 126.73057015 C-195.26924884 117.89558581 -186.43863797 109.06709098 -177.6060187 100.24058433 C-169.54739277 92.18712751 -161.49701209 84.1254859 -153.45047989 76.0599473 C-145.16157703 67.75161775 -136.86707482 59.4489161 -128.56657821 51.15216887 C-123.91727328 46.50467141 -119.27018853 41.85500918 -114.62876415 37.19964027 C-110.26302931 32.8212789 -105.89002252 28.4503101 -101.51147556 24.08476257 C-99.91262431 22.48826594 -98.31628764 20.88924609 -96.72276592 19.28742981 C-74.45793206 -3.08485571 -74.45793206 -3.08485571 -59.33697987 -8.71382332 C-58.1516869 -9.19142097 -58.1516869 -9.19142097 -56.94244862 -9.67866707 C-38.01172833 -16.14790534 -15.82988716 -11.60884188 0 0 Z " fill="#DCD0B6" transform="translate(270.33697986602783,11.713823318481445)"/>
<path d="M0 0 C20.13 0 40.26 0 61 0 C61.02505615 4.34945801 61.0501123 8.69891602 61.07592773 13.18017578 C61.15955579 27.58105646 61.24817523 41.98190326 61.33933926 56.38273811 C61.3944688 65.11045188 61.44791592 73.83816973 61.49731445 82.56591797 C61.54040624 90.17861873 61.58674432 97.79129186 61.63687855 105.40394962 C61.66327992 109.42968203 61.68812501 113.45540968 61.70907402 117.48117447 C61.72890113 121.28144313 61.75311547 125.08166017 61.78049088 128.88188171 C61.79408078 130.91882554 61.80320231 132.95579769 61.81211853 134.99276733 C61.98569591 157.11745423 64.40390752 174.31580805 80 191 C82.99972546 192.49986273 84.65514879 192.5048832 88 192 C97.15759806 186.39151889 104.27583026 171.12981856 107 161 C107.94311059 154.9290589 108.20248738 148.94907842 108.31640625 142.8125 C108.33505737 141.97525391 108.3537085 141.13800781 108.3729248 140.27539062 C108.44060483 137.18368874 108.50114499 134.09183387 108.5625 131 C108.706875 124.07 108.85125 117.14 109 110 C129.13 110 149.26 110 170 110 C170.375 129 170.375 129 170.47802734 134.88671875 C170.92928522 156.87879884 173.40223962 173.60502939 188.56640625 190.7734375 C190.04739938 192.24112141 190.04739938 192.24112141 192.75 192.5625 C198.98729401 191.48296834 202.58361707 186.8601775 206.125 181.875 C215.53637405 166.77653895 216.32272883 151.24787374 216.02987289 133.99752808 C215.96420834 129.64573423 215.96079098 125.29361526 215.9453125 120.94140625 C215.92171238 115.44558174 215.87985331 109.95151529 215.77734375 104.45654297 C215.69529387 99.97107107 215.67184974 95.48859542 215.68716812 91.00244141 C215.6822189 89.30546178 215.6558808 87.60839709 215.60717392 85.91210938 C215.46341647 80.70579412 215.48873189 76.01364671 217 71 C220.60176673 67.50951735 224.42727237 65.91277023 229 64 C247.11337683 51.55882781 256.35801533 34.36251637 263 14 C263.66 14 264.32 14 265 14 C268.45752054 19.5548297 270.57592536 25.09385176 272.5625 31.3125 C272.85318359 32.19873047 273.14386719 33.08496094 273.44335938 33.99804688 C274.31157814 36.66097288 275.16685964 39.32585609 276 42 C276.25125641 42.62736053 276.50251282 43.25472107 276.76138306 43.90109253 C279.93804335 52.62757701 279.39578203 61.56761743 279.328125 70.71875 C279.32505893 72.54463545 279.32318927 74.37052326 279.32244873 76.19641113 C279.31786272 80.01579822 279.30351344 83.83497251 279.28125 87.65429688 C279.25313098 92.49724151 279.24205138 97.34001828 279.2375679 102.1830368 C279.23235173 106.86162853 279.21785976 111.54018035 279.203125 116.21875 C279.20124428 117.08576035 279.19936356 117.95277069 279.19742584 118.84605408 C279.15576706 133.72395137 278.77975049 148.63280528 277.1875 163.4375 C277.06882568 164.54134033 277.06882568 164.54134033 276.94775391 165.66748047 C276.1985681 171.80219586 274.55936675 177.35945387 272 183 C271.34 183 270.68 183 270 183 C269.61134766 184.0828125 269.61134766 184.0828125 269.21484375 185.1875 C263.25574746 198.98347854 249.87277973 211.1886529 239.69921875 222.078125 C237.58706516 224.36450834 235.55875205 226.67685557 233.5625 229.0625 C224.29132857 239.67731947 211.80549895 251.74181039 198 256 C195.5 256.046875 195.5 256.046875 193 255.75 C192.175 255.66234375 191.35 255.5746875 190.5 255.484375 C175.73899022 252.62442935 164.4758693 236.86026919 155.75 225.546875 C152.57357891 221.42912687 149.28061785 217.41517941 145.97265625 213.40234375 C143.96028639 210.95163591 141.97606851 208.48003229 140 206 C136.31806721 207.22731093 135.8386974 208.33282688 133.6875 211.5 C105.66092632 250.98269139 105.66092632 250.98269139 85.9375 256.5859375 C77.93351138 257.55308613 69.97634146 251.20345878 63.87109375 246.68359375 C48.59592881 234.43181336 35.38372333 219.59996362 22.9375 204.5625 C22.35162109 203.86318359 21.76574219 203.16386719 21.16210938 202.44335938 C10 188.95219721 10 188.95219721 10 185 C9.34 185 8.68 185 8 185 C5 178.5 5 178.5 5 174 C4.34 174 3.68 174 3 174 C2.68057559 171.95940522 2.36998638 169.91742776 2.0625 167.875 C1.88847656 166.73804688 1.71445313 165.60109375 1.53515625 164.4296875 C0.07453384 153.32967336 -0.1440935 142.1877532 -0.11352539 131.00830078 C-0.11324243 129.56783042 -0.11340338 128.12735992 -0.1139679 126.68688965 C-0.11425162 122.8241925 -0.10842446 118.9615272 -0.10139394 115.09883738 C-0.09508881 111.04431735 -0.09455099 106.98979638 -0.09336853 102.93527222 C-0.09027613 95.27879938 -0.08209129 87.62234104 -0.07201904 79.96587455 C-0.06079251 71.24020401 -0.05533106 62.51453273 -0.05032361 53.78885674 C-0.03990664 35.85922797 -0.02158755 17.92961904 0 0 Z " fill="#181717" transform="translate(93,139)"/>
<path d="M0 0 C0.83789062 0.20625 1.67578125 0.4125 2.5390625 0.625 C7.52263143 1.94993676 11.61794749 3.67568524 15.8828125 6.5703125 C17.40502785 7.59822914 18.96864572 8.56578389 20.5546875 9.4921875 C36.38376531 18.86407776 46.01485945 31.8963961 52 49 C52.35449219 49.82886719 52.70898438 50.65773437 53.07421875 51.51171875 C55.40975256 57.78908178 55.15164276 64.20953576 55.125 70.8125 C55.12886719 71.75931641 55.13273438 72.70613281 55.13671875 73.68164062 C55.10918688 93.68354598 47.53850022 110.12789888 34.03125 125.02734375 C18.25861278 140.34500105 -1.5666448 146 -23 146 C-23 125.87 -23 105.74 -23 85 C-18.05 84.01 -18.05 84.01 -13 83 C-9.95361422 80.62546438 -9.95361422 80.62546438 -8 78 C-7.67 77.67 -7.34 77.34 -7 77 C-6.76712992 75.31816052 -6.58735834 73.6287584 -6.4375 71.9375 C-6.31181641 70.55884766 -6.31181641 70.55884766 -6.18359375 69.15234375 C-6.12300781 68.44207031 -6.06242187 67.73179687 -6 67 C-6.66 67 -7.32 67 -8 67 C-8.33 66.01 -8.66 65.02 -9 64 C-12.85114152 60.64577997 -16.71233563 60.44204129 -21.62109375 60.56640625 C-25.23790449 61.22562791 -26.84124698 63.14487503 -29 66 C-29.33 66.33 -29.66 66.66 -30 67 C-30.10763675 68.4290161 -30.1468064 69.86326126 -30.15821838 71.29627991 C-30.17290161 72.68667732 -30.17290161 72.68667732 -30.18788147 74.10516357 C-30.19363693 75.13014954 -30.1993924 76.1551355 -30.20532227 77.21118164 C-30.21522186 78.28422043 -30.22512146 79.35725922 -30.23532104 80.46281433 C-30.26704374 84.02857212 -30.29173588 87.59434325 -30.31640625 91.16015625 C-30.33696649 93.62495785 -30.3579627 96.08975586 -30.37937927 98.55455017 C-30.43469605 105.05649915 -30.48406282 111.55848046 -30.53222656 118.06048584 C-30.59055637 125.85399584 -30.65746152 133.64743908 -30.72252655 141.44089508 C-30.82065683 153.29389395 -30.90943029 165.14693007 -31 177 C-51.13 177 -71.26 177 -92 177 C-92.08021762 150.64851227 -92.08021762 150.64851227 -92.09765625 139.34179688 C-92.10957212 131.65255951 -92.12360832 123.96337016 -92.15087891 116.27416992 C-92.17274619 110.06904642 -92.18459771 103.86397447 -92.18975449 97.65881538 C-92.19342546 95.30157218 -92.20059332 92.94433153 -92.21146011 90.58711052 C-92.32269198 65.43902067 -91.38978861 42.72950562 -74 23 C-73.33226562 22.236875 -72.66453125 21.47375 -71.9765625 20.6875 C-63.62455182 11.74557035 -52.73100076 4.5900126 -41 1 C-40.05253906 0.70351563 -39.10507813 0.40703125 -38.12890625 0.1015625 C-25.91338429 -3.22301152 -12.22944315 -3.43282615 0 0 Z " fill="#181717" transform="translate(294,63)"/>
<path d="M0 0 C-1.58561638 3.85593074 -4.06509954 6.33216291 -7 9.25 C-7.886875 10.14203125 -8.77375 11.0340625 -9.6875 11.953125 C-12 14 -12 14 -14 14 C-12.41438362 10.14406926 -9.93490046 7.66783709 -7 4.75 C-6.113125 3.85796875 -5.22625 2.9659375 -4.3125 2.046875 C-2 0 -2 0 0 0 Z " fill="#383530" transform="translate(231,77)"/>
</svg>
